<svg id="Layer_1" data-name="Layer 1" xmlns="http://www.w3.org/2000/svg" viewBox="0 0 503.53 275.58"><defs><style>.cls-1{fill:#ff5a3d;}</style></defs><path class="cls-1" d="M440.8,93.41l-19,.73a.73.73,0,0,1-.71-1l5.08-13.67a.73.73,0,0,1,1.18-.28l13.92,13A.71.71,0,0,1,440.8,93.41Zm-33.75-28.3a1,1,0,0,0,0-1.69c-4-2.61-15.77-10.31-15.77-10.31a.71.71,0,0,0-1.09.74L394,72.08a1,1,0,0,0,1.55.64Zm22.87-8.37a.8.8,0,0,0,.05-.21.15.15,0,0,0,0-.07.32.32,0,0,0,0-.14s0,0,0-.06a.61.61,0,0,0-.07-.14s0,0,0,0a.62.62,0,0,0-.14-.14l0,0-.13-.08-.06,0a.32.32,0,0,0-.14,0h-.27a.67.67,0,0,0-.21.1h0L379.63,88.62a.7.7,0,0,0-.31.54.67.67,0,0,0,0,.2l0,.09a.69.69,0,0,0,.36.41.71.71,0,0,0,.22.06l20.38,2.49a.77.77,0,0,1,.36.15.66.66,0,0,1,.22.32L408,112.15a1.09,1.09,0,0,0,.08.15s0,0,0,0a.3.3,0,0,0,.08.08l.08.07.08,0,.11,0,.08,0h.33l.08,0,.11,0,.11-.1s0,0,.05-.05a.75.75,0,0,0,.11-.2l8.78-23.63,11.81-31.78Z"/><path class="cls-1" d="M111.53,117.54H95.14v45.38H78.44V117.54H62.05v-15h49.48Z"/><path class="cls-1" d="M139,144.45h-6v18.47H116.35V102.57h26.16c13,0,22.44,8.74,22.44,21.36a19.33,19.33,0,0,1-9.58,17l12,21.95H148.8Zm-6-14h7.59c4.65,0,7.33-2.8,7.33-6.57s-2.68-6.54-7.33-6.54H133Z"/><path class="cls-1" d="M211.82,148.5v14.42H172.48V102.57h38.61v14.37H189v8.89h19.82v13.63H189v9Z"/><path class="cls-1" d="M276.77,102.57l-23.09,60.35H238.19L214.6,102.57h19l12.32,37.51,12-37.51Z"/><path class="cls-1" d="M306.07,164.44c-19.4,0-33.24-13.25-33.24-31.7s13.84-31.69,33.24-31.69,33.14,13.2,33.14,31.69-13.79,31.7-33.14,31.7Zm0-15.47c9.18,0,15.83-6.78,15.83-16.22s-6.65-16.23-15.83-16.23-15.93,6.83-15.93,16.23S296.88,149,306.07,149Z"/><path class="cls-1" d="M367.77,144.45h-6v18.47H345.12V102.57h26.16c13,0,22.44,8.74,22.44,21.36a19.33,19.33,0,0,1-9.58,17l12,21.95H377.56Zm-6-14h7.59c4.65,0,7.32-2.8,7.32-6.57s-2.67-6.54-7.32-6.54h-7.59Z"/><path class="cls-1" d="M77.87,77.87H72.65V92.33H67.33V77.87H62.1V73.1H77.87Z"/><path class="cls-1" d="M96.09,73.1V92.33H90.75V85H85v7.38H79.63V73.1H85V80h5.77V73.1Z"/><path class="cls-1" d="M111.46,87.73v4.6H98.92V73.1h12.3v4.58h-7v2.83h6.32v4.35h-6.32v2.87Z"/><path class="cls-1" d="M270.38,199.51v8.55H247.05V172.28H270v8.52H256.87v5.27h11.75v8.08H256.87v5.36Z"/><path class="cls-1" d="M339.11,181.15h-9.72v26.91h-9.91V181.15h-9.72v-8.87h29.35Z"/><path class="cls-1" d="M144.85,185.21c0,7.5-5.65,13-13.26,13h-5.36v9.88h-9.88V172.28h15.24C139.2,172.28,144.85,177.7,144.85,185.21Zm-10.14,0a4.1,4.1,0,0,0-4.3-4.34h-4.18v8.68h4.18A4.11,4.11,0,0,0,134.71,185.23Z"/><path class="cls-1" d="M160.72,197.11h-3.57v10.95h-9.86V172.28H162.8c7.71,0,13.3,5.18,13.3,12.66a11.46,11.46,0,0,1-5.68,10.11l7.11,13h-11Zm-3.57-8.3h4.5c2.76,0,4.34-1.66,4.34-3.9s-1.58-3.87-4.34-3.87h-4.5Z"/><path class="cls-1" d="M198.4,209c-11.51,0-19.72-7.86-19.72-18.8s8.21-18.8,19.72-18.8,19.65,7.83,19.65,18.8S209.87,209,198.4,209Zm0-9.18c5.44,0,9.39-4,9.39-9.62s-3.95-9.62-9.39-9.62a9.62,9.62,0,0,0,0,19.24Z"/><path class="cls-1" d="M232.3,172.28v23c0,2.77-1.62,4.5-4,4.5a5.13,5.13,0,0,1-4-1.74l-7.3,5.86c2.46,3.16,6.46,5.06,11.34,5.06,8.29,0,13.88-5.42,13.88-13.18V172.28Z"/><path class="cls-1" d="M293,199.73a9.58,9.58,0,0,1,0-19.15,8.2,8.2,0,0,1,6.21,2.78l8.42-5a18,18,0,0,0-14.66-7c-10.89,0-19,8.07-19,18.83S282.07,209,293,209h0a17.91,17.91,0,0,0,14.69-7.11l-8.45-5A8,8,0,0,1,293,199.73Z"/></svg>