<svg xmlns="http://www.w3.org/2000/svg" xmlns:xlink="http://www.w3.org/1999/xlink" id="Layer_1" x="0" y="0" version="1.1" viewBox="0 0 432 84.2" xml:space="preserve" style="enable-background:new 0 0 432 84.2"><style type="text/css">.st0{fill:#403a60}.st1{enable-background:new}</style><g><rect width="18.9" height="4.2" x="7.2" y="76.8" class="st0"/><rect width="18.9" height="4.2" x="48" y="76.8" class="st0"/><path d="M35,32.2l1.9-1.4h0.2l1.9,1.4c0.2,0.1,0.4,0,0.3-0.2l-0.7-2.2l0.1-0.2l1.9-1.4c0.2-0.1,0.1-0.4-0.1-0.4h-2.3 l-0.2-0.1l-0.7-2.2c-0.1-0.2-0.3-0.2-0.4,0l-0.7,2.2l-0.2,0.1h-2.3c-0.2,0-0.3,0.2-0.1,0.4l1.9,1.4l0.1,0.2l-0.7,2.2 C34.7,32.1,34.9,32.3,35,32.2" class="st0"/><path d="M20.6,55.3l-0.7-2.2c-0.1-0.2-0.3-0.2-0.4,0l-0.7,2.2l-0.2,0.1h-2.3c-0.2,0-0.3,0.2-0.1,0.3l1.9,1.4l0.1,0.2 l-0.7,2.2c-0.1,0.2,0.1,0.3,0.3,0.2l1.9-1.4h0.2l1.9,1.4c0.1,0.1,0.4,0,0.3-0.2l-0.7-2.2l0.1-0.2l1.9-1.4c0.1-0.1,0.1-0.3-0.1-0.3 h-2.3L20.6,55.3" class="st0"/><path d="M32.2,55.3l-0.7-2.2c-0.1-0.2-0.3-0.2-0.4,0l-0.7,2.2l-0.2,0.1h-2.3c-0.2,0-0.3,0.2-0.1,0.3l1.9,1.4l0.1,0.2 L29,59.6c-0.1,0.2,0.1,0.3,0.3,0.2l1.9-1.4h0.2l1.9,1.4c0.2,0.1,0.4,0,0.3-0.2l-0.7-2.2l0.1-0.2l1.9-1.4c0.2-0.1,0.1-0.3-0.1-0.3 h-2.3L32.2,55.3" class="st0"/><path d="M43.7,55.3L43,53.1c-0.1-0.2-0.3-0.2-0.4,0l-0.7,2.2l-0.2,0.1h-2.3c-0.2,0-0.3,0.2-0.1,0.3l1.9,1.4l0.1,0.2 l-0.7,2.2c-0.1,0.2,0.2,0.3,0.3,0.2l1.9-1.4h0.2l1.9,1.4c0.2,0.1,0.4,0,0.3-0.2l-0.7-2.2l0.1-0.2l1.9-1.4c0.2-0.1,0.1-0.3-0.1-0.3 h-2.3L43.7,55.3" class="st0"/><path d="M57.8,55.5h-2.3l-0.2-0.1l-0.7-2.2c-0.1-0.2-0.3-0.2-0.4,0l-0.7,2.2l-0.2,0.1h-2.3c-0.2,0-0.3,0.2-0.1,0.3 l1.9,1.4l0.1,0.2L52,59.6c-0.1,0.2,0.2,0.3,0.3,0.2l1.9-1.4h0.2l1.9,1.4c0.2,0.1,0.4,0,0.3-0.2l-0.7-2.2l0.1-0.2l1.9-1.4 C58,55.7,57.9,55.5,57.8,55.5" class="st0"/><path d="M27.1,47.4L29,46c0.1-0.1,0.1-0.3-0.1-0.3h-2.3l-0.2-0.1l-0.7-2.2c-0.1-0.2-0.3-0.2-0.4,0l-0.7,2.2l-0.2,0.1 H22c-0.2,0-0.3,0.2-0.1,0.3l1.9,1.4l0.1,0.2l-0.7,2.2c-0.1,0.2,0.1,0.3,0.3,0.2l1.9-1.4h0.2l1.9,1.4c0.1,0.1,0.4,0,0.3-0.2L27,47.6 L27.1,47.4" class="st0"/><path d="M50.3,47.4l1.9-1.4c0.2-0.1,0.1-0.3-0.1-0.3h-2.3l-0.2-0.1l-0.7-2.2c-0.1-0.2-0.3-0.2-0.4,0l-0.7,2.2l-0.2,0.1 h-2.3c-0.2,0-0.3,0.2-0.1,0.3l1.9,1.4l0.1,0.2l-0.7,2.2c-0.1,0.2,0.2,0.3,0.3,0.2l1.9-1.4h0.2l1.9,1.4c0.2,0.1,0.4,0,0.3-0.2 l-0.7-2.2L50.3,47.4" class="st0"/><path d="M38.7,47.4l1.9-1.4c0.2-0.1,0.1-0.3-0.1-0.3h-2.3L38,45.5l-0.7-2.2c-0.1-0.2-0.3-0.2-0.4,0l-0.7,2.2L36,45.7 h-2.3c-0.2,0-0.3,0.2-0.1,0.3l1.9,1.4l0.1,0.2l-0.7,2.2c-0.1,0.2,0.2,0.3,0.3,0.2l1.9-1.4h0.2L39,50c0.2,0.1,0.4,0,0.3-0.2 l-0.7-2.2L38.7,47.4" class="st0"/><path d="M28.8,40.7l1.9-1.4h0.2l1.9,1.4c0.2,0.1,0.4,0,0.3-0.2l-0.7-2.2l0.1-0.2l1.9-1.4c0.2-0.1,0.1-0.3-0.1-0.3h-2.3 l-0.2-0.1L31,34c-0.1-0.2-0.3-0.2-0.4,0l-0.7,2.2l-0.2,0.1h-2.3c-0.2,0-0.3,0.2-0.1,0.3l1.9,1.4l0.1,0.2l-0.7,2.2 C28.4,40.6,28.6,40.8,28.8,40.7" class="st0"/><path d="M41.7,38.2L41,40.4c-0.1,0.2,0.2,0.3,0.3,0.2l1.9-1.4h0.2l1.9,1.4c0.2,0.1,0.4,0,0.3-0.2l-0.7-2.2l0.1-0.2 l1.9-1.4c0.2-0.1,0.1-0.3-0.1-0.3h-2.3l-0.2-0.1l-0.7-2.2c-0.1-0.2-0.3-0.2-0.4,0l-0.7,2.2l-0.2,0.1h-2.3c-0.2,0-0.3,0.2-0.1,0.3 l1.9,1.4L41.7,38.2" class="st0"/><path d="M22.1,37.9L37,12L52,37.9l14.9,25.9H37H7.2L22.1,37.9z M37,3.7l-3.6,6.2L18.5,35.8L3.6,61.7L0,67.9h7.2H37 h29.9h7.2l-3.6-6.2L55.6,35.8L40.6,9.9L37,3.7z" class="st0"/><polygon points="35 73.9 35 76.8 32 76.8 32 81 35 81 35 83.9 39.1 83.9 39.1 81 42.1 81 42.1 76.8 39.1 76.8 39.1 73.9" class="st0"/></g><g><path d="M110.3,59.1c-8.7,0-17.4-3-24.3-9.2l7.4-8.9c5.2,4.3,10.6,7,17.1,7c5.2,0,8.3-2,8.3-5.4v-0.2 c0-3.2-2-4.8-11.5-7.3c-11.5-3-19-6.1-19-17.5v-0.2c0-10.4,8.3-17.3,20.1-17.3c8.3,0,15.5,2.6,21.3,7.3l-6.6,9.5 c-5.1-3.5-10.1-5.6-14.9-5.6s-7.4,2.2-7.4,5v0.2c0,3.8,2.5,5,12.4,7.5c11.6,3,18.2,7.2,18.2,17.2v0.2 C131.3,52.7,122.7,59.1,110.3,59.1" class="st0"/><rect width="12.6" height="57.3" x="138.8" y="1" class="st0"/><path d="M189.2,59.3c-17.9,0-30.1-12.5-30.1-29.5v-0.2c0-16.3,12.7-29.6,30-29.6c10.3,0,16.5,2.8,22.5,7.9l-7.9,9.6 c-4.4-3.7-8.4-5.8-15-5.8c-9.2,0-16.5,8.1-16.5,17.9v0.2c0,10.5,7.2,18.2,17.4,18.2c4.6,0,8.7-1.2,11.9-3.4v-8.2h-12.7V25.3h24.9 v24.9C207.8,55.2,199.7,59.3,189.2,59.3" class="st0"/><polygon points="266.5 58.3 266.5 20.9 250.4 45.3 250 45.3 234.1 21.1 234.1 58.3 221.7 58.3 221.7 1 235.3 1 250.4 25.2 265.4 1 279 1 279 58.3" class="st0"/><path d="M314,15.7l-7.6,18.6h15.2L314,15.7z M331.3,58.3l-5.2-12.8h-24.2l-5.2,12.8h-12.9l24.6-57.7H320l24.6,57.7 H331.3z" class="st0"/><path d="M400.8,21c0-5.6-3.9-8.7-10.2-8.7h-9.7v17.5h10c6.3,0,10-3.8,10-8.7L400.8,21L400.8,21z M390.4,41.1h-9.6v17.2 h-12.6V1h23.4c13.7,0,21.9,8.1,21.9,19.8v0.2C413.6,34.2,403.3,41.1,390.4,41.1" class="st0"/><rect width="12.6" height="57.3" x="419.4" y="1" class="st0"/><g class="st1"><path d="M117.1,75.9L117.1,75.9c0-4.4,3.2-8.3,8-8.3c2.7,0,4.4,0.8,6,2.1l-1.2,1.4c-1.2-1.1-2.6-1.8-4.9-1.8 c-3.5,0-6.1,3-6.1,6.6v0c0,3.8,2.4,6.6,6.3,6.6c1.8,0,3.5-0.7,4.6-1.6v-4H125v-1.6h6.6v6.4c-1.5,1.3-3.7,2.4-6.4,2.4 C120.2,84.2,117.1,80.5,117.1,75.9z" class="st0"/><path d="M141.6,67.8h1.7l7.3,16.1h-1.9l-1.9-4.2h-8.7l-1.9,4.2h-1.8L141.6,67.8z M146.1,78l-3.6-8.1l-3.7,8.1H146.1z" class="st0"/><path d="M153.7,67.9h1.8l5.8,8.7l5.8-8.7h1.8v16h-1.8V70.9l-5.8,8.6h-0.1l-5.8-8.5v12.9h-1.8V67.9z" class="st0"/><path d="M173.6,67.9h1.8l5.8,8.7l5.8-8.7h1.8v16h-1.8V70.9l-5.8,8.6h-0.1l-5.8-8.5v12.9h-1.8V67.9z" class="st0"/><path d="M199.3,67.8h1.7l7.3,16.1h-1.9l-1.9-4.2h-8.7l-1.9,4.2H192L199.3,67.8z M203.8,78l-3.6-8.1l-3.7,8.1H203.8z" class="st0"/><path d="M209.7,76.1h6.3V78h-6.3V76.1z" class="st0"/><path d="M220,67.9h1.8v16H220V67.9z" class="st0"/><path d="M225.8,75.9L225.8,75.9c0-4.5,3.3-8.3,8.2-8.3s8.1,3.8,8.1,8.2v0c0,4.4-3.3,8.3-8.2,8.3 S225.8,80.4,225.8,75.9z M240.2,75.9L240.2,75.9c0-3.7-2.6-6.6-6.3-6.6s-6.3,2.9-6.3,6.6v0c0,3.6,2.6,6.6,6.3,6.6 S240.2,79.6,240.2,75.9z" class="st0"/><path d="M249,69.6h-5.4v-1.7h12.6v1.7h-5.4v14.3H249V69.6z" class="st0"/><path d="M263.4,67.8h1.7l7.3,16.1h-1.9l-1.9-4.2h-8.7l-1.9,4.2h-1.8L263.4,67.8z M267.9,78l-3.6-8.1l-3.7,8.1H267.9z" class="st0"/><path d="M281.7,75.9L281.7,75.9c0-4.6,3.4-8.3,8.1-8.3c2.9,0,4.6,1,6.2,2.5l-1.2,1.3c-1.3-1.3-2.9-2.2-5-2.2 c-3.5,0-6.2,2.9-6.2,6.6v0c0,3.7,2.7,6.6,6.2,6.6c2.2,0,3.6-0.8,5.2-2.3l1.2,1.2c-1.7,1.7-3.5,2.8-6.4,2.8 C285.1,84.2,281.7,80.5,281.7,75.9z" class="st0"/><path d="M299.3,67.9h1.8V75h9.2v-7.1h1.8v16h-1.8v-7.2h-9.2v7.2h-1.8V67.9z" class="st0"/><path d="M322.5,67.8h1.7l7.3,16.1h-1.9l-1.9-4.2H319l-1.9,4.2h-1.8L322.5,67.8z M327,78l-3.6-8.1l-3.7,8.1H327z" class="st0"/><path d="M334.7,67.9h6c3.6,0,6,1.9,6,5.1v0c0,3.4-2.9,5.2-6.3,5.2h-3.9v5.6h-1.8V67.9z M340.4,76.6 c2.6,0,4.4-1.4,4.4-3.5v0c0-2.3-1.7-3.5-4.3-3.5h-4v7H340.4z" class="st0"/><path d="M354.1,69.6h-5.4v-1.7h12.6v1.7H356v14.3h-1.8V69.6z" class="st0"/><path d="M364.7,67.9h11.6v1.6h-9.7V75h8.7v1.6h-8.7v5.6h9.9v1.6h-11.7V67.9z" class="st0"/><path d="M380,67.9h6.9c2,0,3.5,0.6,4.5,1.6c0.8,0.8,1.2,1.9,1.2,3.2v0c0,2.6-1.8,4.2-4.3,4.7l4.9,6.5H391l-4.6-6.2 h-4.6v6.2H380V67.9z M386.7,76.1c2.4,0,4.1-1.2,4.1-3.3v0c0-2-1.5-3.2-4.1-3.2h-4.9v6.5H386.7z" class="st0"/></g></g></svg>